# xmcd
# Track frame offsets:
# 150
# 15475
# 32537
# 43445
# 60155
# 76815
# 93720
# 116170
# 134250
# 150945
#
# Disc length: 2266 seconds
# Revision: 0
# Processed by: cddbd v1.4PL0 Copyright (c) Steve Scherf et al.
# Submitted via: VisiTrax 2.9.5.180 - For more info visit www.synapsa.com
#
DISCID=7208d80a
DTITLE=Peregrine Way - Shades of blue
DYEAR=1996
DGENRE=
TTITLE0=Shades of blue
TTITLE1=Baby tell me the truth
TTITLE2=One good last look
TTITLE3=Insatiable you
TTITLE4=Make up my mind
TTITLE5=I'll change
TTITLE6=The drifter
TTITLE7=The rules
TTITLE8=Keep on rolling
TTITLE9=Road to tomorrow
EXTD=
EXTT0=
EXTT1=
EXTT2=
EXTT3=
EXTT4=
EXTT5=
EXTT6=
EXTT7=
EXTT8=
EXTT9=
PLAYORDER=
